<svg width="44" height="44" viewBox="0 0 44 44" fill="none" xmlns="http://www.w3.org/2000/svg">
<g clip-path="url(#clip0_121_1865)">
<path d="M33.7135 22.2763C33.7135 21.4605 33.6474 20.6404 33.5063 19.8379H22.1875V24.4589H28.6692C28.4003 25.9492 27.536 27.2676 26.2705 28.1054V31.1037H30.1375C32.4083 29.0137 33.7135 25.9272 33.7135 22.2763Z" fill="#FED6EA"/>
<path d="M22.1876 34.0008C25.4241 34.0008 28.1534 32.9382 30.142 31.1039L26.2751 28.1055C25.1992 28.8375 23.8102 29.252 22.192 29.252C19.0614 29.252 16.407 27.1399 15.4546 24.3003H11.4641V27.3912C13.5012 31.4434 17.6504 34.0008 22.1876 34.0008V34.0008Z" fill="#FE84BF"/>
<path d="M15.45 24.3005C14.9474 22.8101 14.9474 21.1963 15.45 19.7059V16.615H11.464C9.762 20.0058 9.762 24.0006 11.464 27.3914L15.45 24.3005V24.3005Z" fill="#C2025F"/>
<path d="M22.1876 14.7497C23.8984 14.7232 25.5519 15.367 26.791 16.5487L30.217 13.1226C28.0476 11.0855 25.1683 9.96553 22.1876 10.0008C17.6504 10.0008 13.5012 12.5582 11.4641 16.6148L15.4501 19.7058C16.3982 16.8617 19.057 14.7497 22.1876 14.7497V14.7497Z" fill="#FC0A7F"/>
</g>
<defs>
<clipPath id="clip0_121_1865">
<rect width="24" height="24" fill="white" transform="translate(10 10)"/>
</clipPath>
</defs>
</svg>
