<svg width="210" height="92" viewBox="0 0 210 92" fill="none" xmlns="http://www.w3.org/2000/svg">
<circle opacity="0.6" cx="47.284" cy="57.2801" r="33.284" fill="#FC0A7F"/>
<circle opacity="0.6" cx="57.2693" cy="51.5311" r="27.5349" fill="#FC0A7F"/>
<path opacity="0.5" d="M46.6715 8.26196L28.5239 61.0039C28.5239 61.0039 81.0563 70.507 84.3993 55.3021C87.7423 40.0972 69.9553 18.0963 46.6715 8.26196Z" fill="url(#paint0_linear_115_298)"/>
<path opacity="0.7" d="M47.4708 17.2032L41.9476 26.8095L53.4609 27.6913L49.465 17.356L47.4708 17.2032ZM64.5 2.58474C65.0096 2.37194 65.2502 1.78629 65.0374 1.27665C64.8246 0.767006 64.239 0.526365 63.7293 0.739162L64.5 2.58474ZM49.3561 18.5407C50.7971 13.2746 54.6192 6.71036 64.5 2.58474L63.7293 0.739162C53.223 5.12599 49.0136 12.2149 47.427 18.0128L49.3561 18.5407Z" fill="#5DFDDD"/>
<path d="M112.92 60.4C111.667 60.4 110.533 60.2267 109.52 59.88C108.533 59.5067 107.76 59.08 107.2 58.6C106.64 58.0933 106.36 57.6933 106.36 57.4C106.36 56.92 106.627 56.68 107.16 56.68C107.88 57.48 108.733 58.1067 109.72 58.56C110.707 58.9867 111.747 59.2 112.84 59.2C114.36 59.2 115.573 58.8 116.48 58C117.413 57.2 117.88 56.1333 117.88 54.8C117.88 53.6533 117.467 52.7067 116.64 51.96C115.84 51.1867 114.44 50.4667 112.44 49.8C110.333 49.08 108.84 48.2933 107.96 47.44C107.107 46.5867 106.68 45.52 106.68 44.24C106.68 42.6933 107.213 41.4667 108.28 40.56C109.347 39.6533 110.773 39.2 112.56 39.2C113.733 39.2 114.787 39.3867 115.72 39.76C116.653 40.1067 117.387 40.5333 117.92 41.04C118.48 41.52 118.76 41.9067 118.76 42.2C118.76 42.68 118.493 42.92 117.96 42.92C117.213 42.0667 116.413 41.44 115.56 41.04C114.707 40.6133 113.747 40.4 112.68 40.4C111.267 40.4 110.16 40.7333 109.36 41.4C108.587 42.0667 108.2 42.96 108.2 44.08C108.2 45.12 108.613 45.9867 109.44 46.68C110.267 47.3467 111.72 48.04 113.8 48.76C115.827 49.48 117.267 50.2933 118.12 51.2C118.973 52.1067 119.4 53.28 119.4 54.72C119.4 56.5067 118.827 57.9067 117.68 58.92C116.533 59.9067 114.947 60.4 112.92 60.4ZM124.499 65.76C124.339 65.76 124.166 65.7067 123.979 65.6V40.84C123.979 39.9067 124.299 39.44 124.939 39.44C125.099 39.44 125.273 39.4933 125.459 39.6V43.44C126.233 42.1067 127.219 41.0667 128.419 40.32C129.619 39.5733 130.993 39.2 132.539 39.2C134.966 39.2 136.886 40.0933 138.299 41.88C139.739 43.6667 140.459 46.1333 140.459 49.28C140.459 51.4933 140.099 53.44 139.379 55.12C138.659 56.8 137.633 58.1067 136.299 59.04C134.993 59.9467 133.446 60.4 131.659 60.4C130.299 60.4 129.099 60.1467 128.059 59.64C127.019 59.1067 126.153 58.4133 125.459 57.56V64.36C125.459 65.2933 125.139 65.76 124.499 65.76ZM131.659 59.2C133.926 59.2 135.699 58.3067 136.979 56.52C138.286 54.7067 138.939 52.2933 138.939 49.28C138.939 46.48 138.379 44.3067 137.259 42.76C136.139 41.1867 134.566 40.4 132.539 40.4C131.179 40.4 129.953 40.76 128.859 41.48C127.793 42.1733 126.953 43.1467 126.339 44.4C125.753 45.6267 125.459 47.0267 125.459 48.6V53.24C125.459 55.0533 126.046 56.5067 127.219 57.6C128.419 58.6667 129.899 59.2 131.659 59.2ZM145.79 60.16C145.63 60.16 145.457 60.1067 145.27 60V32.44C145.27 31.5067 145.59 31.04 146.23 31.04C146.39 31.04 146.564 31.0933 146.75 31.2V58.76C146.75 59.6933 146.43 60.16 145.79 60.16ZM153.881 35.56C153.561 35.56 153.294 35.4667 153.081 35.28C152.894 35.0667 152.801 34.8 152.801 34.48C152.801 34.16 152.894 33.9067 153.081 33.72C153.294 33.5067 153.561 33.4 153.881 33.4C154.201 33.4 154.468 33.5067 154.681 33.72C154.894 33.9067 155.001 34.16 155.001 34.48C155.001 34.8 154.894 35.0667 154.681 35.28C154.468 35.4667 154.201 35.56 153.881 35.56ZM153.681 60.16C153.521 60.16 153.348 60.1067 153.161 60V40.84C153.161 39.9067 153.481 39.44 154.121 39.44C154.281 39.44 154.454 39.4933 154.641 39.6V58.76C154.641 59.6933 154.321 60.16 153.681 60.16ZM167.812 57.8C168.238 57.8 168.452 58.0133 168.452 58.44C168.452 58.8933 168.158 59.2933 167.572 59.64C167.012 59.9867 166.318 60.16 165.492 60.16C164.425 60.16 163.598 59.84 163.012 59.2C162.452 58.5333 162.172 57.6 162.172 56.4V40.8H159.252C159.172 40.64 159.132 40.4933 159.132 40.36C159.132 40.12 159.225 39.9333 159.412 39.8C159.625 39.6667 159.918 39.6 160.292 39.6H162.172V35.8C162.172 34.8667 162.492 34.4 163.132 34.4C163.292 34.4 163.465 34.4533 163.652 34.56V39.6H168.332C168.412 39.76 168.452 39.9067 168.452 40.04C168.452 40.28 168.345 40.4667 168.132 40.6C167.945 40.7333 167.665 40.8 167.292 40.8H163.652V56.24C163.652 57.12 163.812 57.8 164.132 58.28C164.478 58.7333 164.985 58.96 165.652 58.96C166.612 58.96 167.332 58.5733 167.812 57.8ZM186.894 30H188.494L168.894 66.4H167.294L186.894 30Z" fill="url(#paint1_linear_115_298)"/>
<defs>
<linearGradient id="paint0_linear_115_298" x1="111.819" y1="8.26196" x2="11.5084" y2="35.6173" gradientUnits="userSpaceOnUse">
<stop stop-color="#00FAFF"/>
<stop offset="1" stop-color="#FC0A7F"/>
</linearGradient>
<linearGradient id="paint1_linear_115_298" x1="187" y1="31.7143" x2="98.5497" y2="79.5557" gradientUnits="userSpaceOnUse">
<stop stop-color="#5DFDDD"/>
<stop offset="1" stop-color="#FC0A7F"/>
</linearGradient>
</defs>
</svg>
