<svg viewBox="0 0 117 148" fill="none" xmlns="http://www.w3.org/2000/svg">
<circle opacity="0.6" cx="55" cy="93" r="55" fill="#FC0A7F"/>
<path opacity="0.5" d="M53.9879 12L24 99.1533C24 99.1533 110.807 114.857 116.331 89.7313C121.855 64.606 92.4632 28.2508 53.9879 12Z" fill="url(#paint0_linear_0_1)"/>
<path opacity="0.7" d="M54.6933 33.3776L49.921 43.3781L61.468 43.3768L56.6933 33.3773L54.6933 33.3776ZM83.1971 2.01663C83.7067 1.80384 83.9474 1.21818 83.7346 0.70854C83.5218 0.198898 82.9361 -0.0417446 82.4265 0.171054L83.1971 2.01663ZM56.6864 34.4975C57.8023 25.145 62.9306 10.4787 83.1971 2.01663L82.4265 0.171054C61.3424 8.97454 55.8803 24.3721 54.7005 34.2605L56.6864 34.4975Z" fill="#5DFDDD"/>
<path d="M32.336 103.32C31.3333 103.32 30.4267 103.181 29.616 102.904C28.8267 102.605 28.208 102.264 27.76 101.88C27.312 101.475 27.088 101.155 27.088 100.92C27.088 100.536 27.3013 100.344 27.728 100.344C28.304 100.984 28.9867 101.485 29.776 101.848C30.5653 102.189 31.3973 102.36 32.272 102.36C33.488 102.36 34.4587 102.04 35.184 101.4C35.9307 100.76 36.304 99.9067 36.304 98.84C36.304 97.9227 35.9733 97.1653 35.312 96.568C34.672 95.9493 33.552 95.3733 31.952 94.84C30.2667 94.264 29.072 93.6347 28.368 92.952C27.6853 92.2693 27.344 91.416 27.344 90.392C27.344 89.1547 27.7707 88.1733 28.624 87.448C29.4773 86.7227 30.6187 86.36 32.048 86.36C32.9867 86.36 33.8293 86.5093 34.576 86.808C35.3227 87.0853 35.9093 87.4267 36.336 87.832C36.784 88.216 37.008 88.5253 37.008 88.76C37.008 89.144 36.7947 89.336 36.368 89.336C35.7707 88.6533 35.1307 88.152 34.448 87.832C33.7653 87.4907 32.9973 87.32 32.144 87.32C31.0133 87.32 30.128 87.5867 29.488 88.12C28.8693 88.6533 28.56 89.368 28.56 90.264C28.56 91.096 28.8907 91.7893 29.552 92.344C30.2133 92.8773 31.376 93.432 33.04 94.008C34.6613 94.584 35.8133 95.2347 36.496 95.96C37.1787 96.6853 37.52 97.624 37.52 98.776C37.52 100.205 37.0613 101.325 36.144 102.136C35.2267 102.925 33.9573 103.32 32.336 103.32ZM41.5995 107.608C41.4715 107.608 41.3328 107.565 41.1835 107.48V87.672C41.1835 86.9253 41.4395 86.552 41.9515 86.552C42.0795 86.552 42.2182 86.5947 42.3675 86.68V89.752C42.9862 88.6853 43.7755 87.8533 44.7355 87.256C45.6955 86.6587 46.7942 86.36 48.0315 86.36C49.9728 86.36 51.5088 87.0747 52.6395 88.504C53.7915 89.9333 54.3675 91.9067 54.3675 94.424C54.3675 96.1947 54.0795 97.752 53.5035 99.096C52.9275 100.44 52.1062 101.485 51.0395 102.232C49.9942 102.957 48.7568 103.32 47.3275 103.32C46.2395 103.32 45.2795 103.117 44.4475 102.712C43.6155 102.285 42.9222 101.731 42.3675 101.048V106.488C42.3675 107.235 42.1115 107.608 41.5995 107.608ZM47.3275 102.36C49.1408 102.36 50.5595 101.645 51.5835 100.216C52.6288 98.7653 53.1515 96.8347 53.1515 94.424C53.1515 92.184 52.7035 90.4453 51.8075 89.208C50.9115 87.9493 49.6528 87.32 48.0315 87.32C46.9435 87.32 45.9622 87.608 45.0875 88.184C44.2342 88.7387 43.5622 89.5173 43.0715 90.52C42.6022 91.5013 42.3675 92.6213 42.3675 93.88V97.592C42.3675 99.0427 42.8368 100.205 43.7755 101.08C44.7355 101.933 45.9195 102.36 47.3275 102.36ZM58.6323 103.128C58.5043 103.128 58.3656 103.085 58.2163 103V80.952C58.2163 80.2053 58.4723 79.832 58.9843 79.832C59.1123 79.832 59.2509 79.8747 59.4003 79.96V102.008C59.4003 102.755 59.1443 103.128 58.6323 103.128ZM65.1048 83.448C64.8488 83.448 64.6354 83.3733 64.4648 83.224C64.3154 83.0533 64.2408 82.84 64.2408 82.584C64.2408 82.328 64.3154 82.1253 64.4648 81.976C64.6354 81.8053 64.8488 81.72 65.1048 81.72C65.3608 81.72 65.5741 81.8053 65.7448 81.976C65.9154 82.1253 66.0008 82.328 66.0008 82.584C66.0008 82.84 65.9154 83.0533 65.7448 83.224C65.5741 83.3733 65.3608 83.448 65.1048 83.448ZM64.9448 103.128C64.8168 103.128 64.6781 103.085 64.5288 103V87.672C64.5288 86.9253 64.7848 86.552 65.2968 86.552C65.4248 86.552 65.5634 86.5947 65.7128 86.68V102.008C65.7128 102.755 65.4568 103.128 64.9448 103.128ZM76.2493 101.24C76.5906 101.24 76.7613 101.411 76.7613 101.752C76.7613 102.115 76.5266 102.435 76.0573 102.712C75.6093 102.989 75.0546 103.128 74.3933 103.128C73.5399 103.128 72.8786 102.872 72.4093 102.36C71.9613 101.827 71.7373 101.08 71.7373 100.12V87.64H69.4013C69.3373 87.512 69.3053 87.3947 69.3053 87.288C69.3053 87.096 69.3799 86.9467 69.5293 86.84C69.6999 86.7333 69.9346 86.68 70.2333 86.68H71.7373V83.64C71.7373 82.8933 71.9933 82.52 72.5052 82.52C72.6333 82.52 72.7719 82.5627 72.9213 82.648V86.68H76.6653C76.7293 86.808 76.7613 86.9253 76.7613 87.032C76.7613 87.224 76.6759 87.3733 76.5052 87.48C76.3559 87.5867 76.1319 87.64 75.8333 87.64H72.9213V99.992C72.9213 100.696 73.0493 101.24 73.3053 101.624C73.5826 101.987 73.9879 102.168 74.5213 102.168C75.2893 102.168 75.8653 101.859 76.2493 101.24ZM88.9873 79H90.2673L79.1953 108.12H77.9153L88.9873 79Z" fill="#5DFDDD"/>
<defs>
<linearGradient id="paint0_linear_0_1" x1="161.64" y1="12" x2="-4.11728" y2="57.2033" gradientUnits="userSpaceOnUse">
<stop stop-color="#00FAFF"/>
<stop offset="1" stop-color="#FC0A7F"/>
</linearGradient>
</defs>
</svg>
