<svg viewBox="0 0 117 148" fill="none" xmlns="http://www.w3.org/2000/svg">
<circle opacity="0.6" cx="55" cy="93" r="55" fill="#FC0A7F"/>
<circle opacity="0.6" cx="71.5" cy="83.5" r="45.5" fill="#FC0A7F"/>
<path opacity="0.5" d="M53.9879 12L24 99.1533C24 99.1533 110.807 114.857 116.331 89.7313C121.855 64.606 92.4632 28.2508 53.9879 12Z" fill="url(#paint0_linear_0_1)"/>
<path opacity="0.7" d="M54.6933 33.3776L49.921 43.3781L61.468 43.3768L56.6933 33.3773L54.6933 33.3776ZM83.1971 2.01663C83.7067 1.80384 83.9474 1.21818 83.7346 0.70854C83.5218 0.198898 82.9361 -0.0417446 82.4265 0.171054L83.1971 2.01663ZM56.6864 34.4975C57.8023 25.145 62.9306 10.4787 83.1971 2.01663L82.4265 0.171054C61.3424 8.97454 55.8803 24.3721 54.7005 34.2605L56.6864 34.4975Z" fill="#5DFDDD"/>
<defs>
<linearGradient id="paint0_linear_0_1" x1="161.64" y1="12" x2="-4.11728" y2="57.2033" gradientUnits="userSpaceOnUse">
<stop stop-color="#00FAFF"/>
<stop offset="1" stop-color="#FC0A7F"/>
</linearGradient>
</defs>
</svg>
